<?xml version="1.0" encoding="utf-8"?>
<!-- Generator: Adobe Illustrator 27.3.1, SVG Export Plug-In . SVG Version: 6.00 Build 0)  -->
<svg version="1.1" id="Layer_1" xmlns="http://www.w3.org/2000/svg" xmlns:xlink="http://www.w3.org/1999/xlink" x="0px" y="0px"
	 viewBox="0 0 600 600" style="enable-background:new 0 0 600 600;" xml:space="preserve">
<style type="text/css">
	.st0{fill:#565656;}
	.spin{
	  animation: spin 2s linear, spin 30s linear infinite;
	  transform-box: fill-box;
	  transform-origin: center;
	  }
	@keyframes spin {
		100% {
			-webkit-transform: rotate(360deg);
			transform:rotate(360deg);
		}
	}
</style>
<g class="spin">
	<path class="st0" d="M106.94,186.75c-0.7,0.49-1.43,0.77-2.2,0.83s-1.52-0.13-2.23-0.56l1.32-2.19c0.57,0.28,1.14,0.33,1.72,0.17
		c0.58-0.17,1.07-0.59,1.48-1.28c0.43-0.71,0.59-1.36,0.49-1.96c-0.1-0.6-0.42-1.07-0.96-1.39c-0.42-0.25-0.84-0.34-1.25-0.25
		c-0.41,0.09-0.8,0.27-1.17,0.55c-0.36,0.28-0.83,0.69-1.38,1.24c-0.71,0.69-1.33,1.21-1.86,1.59c-0.53,0.38-1.14,0.6-1.82,0.68
		c-0.68,0.08-1.42-0.12-2.2-0.59c-0.72-0.43-1.24-0.99-1.56-1.68c-0.32-0.69-0.43-1.44-0.33-2.26c0.1-0.82,0.41-1.66,0.93-2.51
		c0.73-1.21,1.63-2.02,2.7-2.43s2.16-0.33,3.27,0.22l-1.37,2.27c-0.48-0.24-1-0.26-1.56-0.06c-0.56,0.2-1.04,0.62-1.43,1.27
		c-0.35,0.59-0.49,1.16-0.42,1.71c0.08,0.55,0.4,1,0.96,1.34c0.38,0.23,0.77,0.3,1.16,0.22s0.76-0.26,1.12-0.54
		c0.36-0.27,0.81-0.67,1.36-1.19c0.73-0.69,1.36-1.23,1.9-1.61c0.54-0.38,1.16-0.62,1.85-0.7c0.69-0.08,1.44,0.12,2.23,0.6
		c0.64,0.38,1.13,0.92,1.49,1.6c0.36,0.68,0.51,1.45,0.46,2.31c-0.05,0.86-0.35,1.73-0.88,2.62
		C108.24,185.59,107.64,186.26,106.94,186.75z"/>
	<path class="st0" d="M103.72,168.79l3.54,2.41l2.83-4.17l1.62,1.1l-2.83,4.17l3.7,2.51l3.19-4.69l1.62,1.1l-4.53,6.67l-12.09-8.21
		l4.53-6.67l1.62,1.1L103.72,168.79z"/>
	<path class="st0" d="M123.74,162.69l-6.68-0.87l-1.11,1.45l4.64,3.54l-1.45,1.9l-11.61-8.85l3.06-4.01
		c0.68-0.89,1.41-1.53,2.19-1.91c0.78-0.38,1.55-0.52,2.31-0.43c0.76,0.09,1.46,0.39,2.1,0.88c0.76,0.58,1.28,1.32,1.56,2.23
		c0.28,0.91,0.19,1.91-0.29,2.99l7,0.79L123.74,162.69z M114.44,162.11l1.6-2.1c0.54-0.71,0.77-1.39,0.69-2.02
		c-0.08-0.63-0.42-1.18-1.02-1.64c-0.6-0.46-1.21-0.64-1.82-0.54s-1.19,0.51-1.74,1.23l-1.6,2.1L114.44,162.11z"/>
	<path class="st0" d="M124.51,139.08l7.45,13.7l-1.81,2.1l-14.64-5.39l1.68-1.94l12.01,4.68l-6.33-11.23L124.51,139.08z"/>
	<path class="st0" d="M128.14,135.34l10.59,10.05l-1.65,1.74l-10.59-10.05L128.14,135.34z"/>
	<path class="st0" d="M133.38,134.76c-0.3-1.28-0.26-2.54,0.12-3.79s1.07-2.34,2.05-3.28c1.12-1.07,2.39-1.75,3.79-2.04
		c1.4-0.28,2.79-0.11,4.15,0.52l-2.08,1.99c-0.81-0.3-1.58-0.35-2.33-0.16c-0.75,0.19-1.44,0.59-2.08,1.2
		c-0.7,0.67-1.17,1.42-1.42,2.25c-0.25,0.84-0.24,1.7,0.01,2.58c0.25,0.88,0.75,1.71,1.5,2.49c0.74,0.78,1.55,1.32,2.42,1.61
		c0.87,0.29,1.73,0.34,2.58,0.13c0.85-0.2,1.63-0.64,2.32-1.31c0.64-0.61,1.07-1.28,1.29-2.02c0.22-0.74,0.21-1.52-0.05-2.33
		l2.08-1.99c0.57,1.39,0.68,2.78,0.33,4.16c-0.35,1.38-1.09,2.61-2.22,3.69c-0.99,0.95-2.12,1.58-3.38,1.91
		c-1.26,0.32-2.52,0.3-3.79-0.06s-2.39-1.06-3.38-2.09C134.32,137.19,133.68,136.04,133.38,134.76z"/>
	<path class="st0" d="M146.56,120.59l2.76,3.27l3.85-3.25l1.26,1.49l-3.85,3.25l2.89,3.42l4.33-3.66l1.26,1.49l-6.16,5.2
		l-9.43-11.16l6.16-5.2l1.26,1.49L146.56,120.59z"/>
	<path class="st0" d="M162.93,123.09c-0.83,0.2-1.62,0.18-2.35-0.05c-0.74-0.23-1.36-0.68-1.87-1.35l2.04-1.55
		c0.42,0.47,0.94,0.73,1.53,0.79c0.6,0.06,1.21-0.15,1.85-0.64c0.66-0.5,1.05-1.05,1.18-1.64s0-1.15-0.38-1.65
		c-0.3-0.39-0.65-0.62-1.07-0.69c-0.42-0.07-0.84-0.05-1.29,0.08c-0.44,0.12-1.02,0.34-1.74,0.64c-0.91,0.37-1.68,0.64-2.31,0.79
		s-1.28,0.14-1.94-0.04c-0.66-0.18-1.27-0.63-1.82-1.36c-0.51-0.67-0.78-1.38-0.83-2.14c-0.05-0.76,0.13-1.5,0.53-2.22
		c0.4-0.72,1-1.39,1.79-1.99c1.13-0.85,2.26-1.27,3.41-1.25s2.13,0.49,2.95,1.41l-2.11,1.6c-0.35-0.4-0.83-0.61-1.43-0.63
		c-0.6-0.02-1.2,0.19-1.8,0.65c-0.55,0.41-0.89,0.89-1.02,1.43c-0.13,0.54,0,1.07,0.39,1.6c0.27,0.36,0.6,0.57,0.99,0.63
		c0.39,0.06,0.8,0.04,1.24-0.08c0.44-0.12,1-0.32,1.7-0.6c0.93-0.37,1.72-0.63,2.37-0.79c0.65-0.16,1.31-0.14,1.98,0.04
		c0.67,0.18,1.29,0.64,1.85,1.38c0.45,0.59,0.71,1.27,0.79,2.04c0.08,0.77-0.06,1.54-0.43,2.32c-0.37,0.78-0.96,1.48-1.79,2.11
		C164.57,122.49,163.76,122.89,162.93,123.09z"/>
	<path class="st0" d="M182.82,109.31c-0.85,0.11-1.63,0.01-2.34-0.3c-0.71-0.31-1.28-0.82-1.71-1.54l2.2-1.32
		c0.37,0.51,0.85,0.83,1.44,0.95c0.59,0.12,1.22-0.02,1.91-0.43c0.71-0.42,1.16-0.93,1.35-1.51c0.19-0.58,0.12-1.14-0.2-1.68
		c-0.25-0.42-0.58-0.69-0.98-0.8c-0.4-0.12-0.83-0.14-1.29-0.06s-1.05,0.22-1.8,0.44c-0.95,0.27-1.74,0.45-2.38,0.54
		c-0.64,0.08-1.29,0-1.93-0.25c-0.64-0.25-1.2-0.77-1.66-1.55c-0.43-0.72-0.63-1.46-0.59-2.21s0.29-1.47,0.77-2.15
		c0.48-0.68,1.14-1.27,1.99-1.78c1.21-0.73,2.39-1.02,3.53-0.88s2.07,0.72,2.78,1.72l-2.27,1.36c-0.31-0.43-0.76-0.69-1.35-0.78
		c-0.59-0.09-1.21,0.06-1.86,0.45c-0.59,0.35-0.98,0.79-1.17,1.31c-0.19,0.52-0.12,1.07,0.22,1.63c0.23,0.38,0.54,0.63,0.92,0.73
		c0.38,0.11,0.8,0.12,1.24,0.05c0.45-0.07,1.03-0.21,1.76-0.42c0.97-0.27,1.78-0.45,2.44-0.53c0.66-0.08,1.31,0,1.96,0.25
		c0.65,0.25,1.21,0.78,1.69,1.57c0.38,0.64,0.57,1.34,0.57,2.11c0,0.77-0.23,1.52-0.68,2.26c-0.45,0.73-1.12,1.37-2.01,1.9
		C184.51,108.89,183.66,109.2,182.82,109.31z"/>
	<path class="st0" d="M188.39,91.92l2,3.79l4.45-2.36l0.91,1.73l-4.46,2.36l2.09,3.95l5.01-2.65l0.91,1.73l-7.13,3.77l-6.84-12.92
		l7.13-3.77l0.91,1.73L188.39,91.92z"/>
	<path class="st0" d="M208.92,95.93l-5.49-3.9l-1.66,0.76l2.44,5.3l-2.17,1l-6.11-13.26l4.58-2.11c1.02-0.47,1.96-0.69,2.83-0.66
		s1.62,0.26,2.24,0.7c0.62,0.44,1.11,1.02,1.45,1.76c0.4,0.86,0.51,1.77,0.33,2.7s-0.73,1.77-1.65,2.51l5.81,3.98L208.92,95.93z
		 M200.97,91.06l2.4-1.11c0.81-0.38,1.33-0.86,1.56-1.46c0.23-0.6,0.18-1.24-0.14-1.93c-0.32-0.69-0.77-1.13-1.35-1.33
		c-0.59-0.2-1.29-0.11-2.12,0.27l-2.4,1.11L200.97,91.06z"/>
	<path class="st0" d="M220.7,75.43l0.14,15.59l-2.59,1l-10.39-11.63l2.39-0.92l8.41,9.76l-0.32-12.89L220.7,75.43z"/>
	<path class="st0" d="M225.67,73.84l4.62,13.84l-2.27,0.76L223.4,74.6L225.67,73.84z"/>
	<path class="st0" d="M230.57,75.78c0.33-1.27,0.97-2.37,1.89-3.29s2.04-1.56,3.35-1.93c1.5-0.42,2.93-0.42,4.3-0.02
		c1.37,0.41,2.51,1.21,3.41,2.42l-2.77,0.77c-0.57-0.64-1.23-1.05-1.98-1.23c-0.75-0.18-1.55-0.16-2.4,0.08
		c-0.93,0.26-1.7,0.7-2.31,1.32c-0.61,0.62-1.01,1.38-1.21,2.28c-0.19,0.9-0.14,1.86,0.15,2.9c0.29,1.04,0.75,1.89,1.38,2.56
		c0.63,0.67,1.37,1.11,2.22,1.33c0.85,0.22,1.74,0.2,2.67-0.06c0.85-0.24,1.55-0.63,2.09-1.17c0.55-0.55,0.9-1.24,1.05-2.08
		l2.77-0.77c-0.15,1.5-0.7,2.77-1.67,3.82c-0.96,1.05-2.19,1.79-3.69,2.21c-1.32,0.37-2.61,0.4-3.88,0.09
		c-1.26-0.31-2.37-0.92-3.31-1.83c-0.95-0.91-1.61-2.06-2-3.43C230.26,78.37,230.24,77.05,230.57,75.78z"/>
	<path class="st0" d="M248.85,69.48l0.9,4.19l4.93-1.06l0.41,1.91l-4.93,1.06l0.94,4.37l5.54-1.19l0.41,1.91l-7.89,1.69l-3.06-14.29
		l7.89-1.69l0.41,1.91L248.85,69.48z"/>
	<path class="st0" d="M262.14,79.4c-0.83-0.22-1.51-0.6-2.05-1.15c-0.54-0.55-0.88-1.24-1.01-2.07l2.53-0.4
		c0.15,0.61,0.48,1.09,0.98,1.42c0.5,0.33,1.14,0.44,1.93,0.31c0.82-0.13,1.42-0.43,1.81-0.89c0.39-0.47,0.54-1.01,0.44-1.63
		c-0.08-0.48-0.28-0.86-0.61-1.12c-0.33-0.26-0.72-0.44-1.17-0.54c-0.45-0.1-1.06-0.19-1.84-0.26c-0.98-0.1-1.78-0.23-2.41-0.39
		s-1.19-0.48-1.69-0.95c-0.5-0.47-0.82-1.16-0.96-2.06c-0.13-0.83-0.04-1.59,0.28-2.28s0.82-1.26,1.52-1.71
		c0.69-0.45,1.53-0.75,2.51-0.91c1.4-0.22,2.6-0.05,3.6,0.5c1,0.56,1.65,1.44,1.94,2.64l-2.61,0.41c-0.12-0.52-0.44-0.93-0.96-1.23
		c-0.52-0.3-1.15-0.39-1.89-0.27c-0.68,0.11-1.2,0.37-1.58,0.78s-0.51,0.95-0.41,1.6c0.07,0.44,0.26,0.78,0.58,1.02
		c0.31,0.24,0.69,0.41,1.13,0.51s1.04,0.19,1.79,0.27c1,0.11,1.82,0.25,2.46,0.42s1.22,0.49,1.73,0.97
		c0.51,0.48,0.83,1.18,0.98,2.09c0.12,0.73,0.03,1.46-0.26,2.17c-0.29,0.71-0.78,1.33-1.47,1.84c-0.69,0.51-1.55,0.85-2.57,1.01
		C263.86,79.65,262.96,79.62,262.14,79.4z"/>
	<path class="st0" d="M286.15,76.63c-0.8-0.3-1.44-0.76-1.92-1.37c-0.48-0.61-0.74-1.33-0.78-2.17l2.56-0.13
		c0.09,0.63,0.36,1.13,0.82,1.52s1.09,0.56,1.89,0.52c0.82-0.04,1.46-0.27,1.9-0.69c0.44-0.42,0.65-0.95,0.62-1.58
		c-0.02-0.49-0.19-0.88-0.49-1.17s-0.67-0.51-1.11-0.66c-0.43-0.15-1.03-0.3-1.8-0.46c-0.96-0.2-1.75-0.42-2.36-0.65
		c-0.61-0.23-1.13-0.61-1.58-1.13c-0.45-0.52-0.69-1.24-0.74-2.15c-0.04-0.84,0.13-1.58,0.52-2.23c0.39-0.65,0.95-1.16,1.69-1.53
		c0.74-0.37,1.6-0.58,2.6-0.63c1.41-0.07,2.59,0.23,3.52,0.89c0.94,0.66,1.48,1.61,1.64,2.83l-2.64,0.13
		c-0.07-0.53-0.34-0.97-0.82-1.33c-0.48-0.35-1.1-0.51-1.85-0.48c-0.69,0.03-1.24,0.24-1.65,0.61s-0.61,0.89-0.58,1.54
		c0.02,0.45,0.18,0.81,0.46,1.08c0.29,0.27,0.64,0.48,1.07,0.63s1.01,0.3,1.75,0.46c0.98,0.22,1.78,0.44,2.4,0.68
		c0.62,0.24,1.16,0.62,1.61,1.15c0.45,0.53,0.7,1.26,0.75,2.18c0.04,0.74-0.13,1.45-0.49,2.13c-0.37,0.68-0.92,1.23-1.66,1.67
		c-0.74,0.44-1.63,0.68-2.67,0.73C287.84,77.06,286.95,76.94,286.15,76.63z"/>
	<path class="st0" d="M299.4,63.91l-0.07,4.28l5.04,0.08l-0.03,1.95l-5.04-0.08l-0.07,4.47l5.67,0.09l-0.03,1.95l-8.06-0.13
		l0.24-14.61l8.06,0.13L305.06,64L299.4,63.91z"/>
	<path class="st0" d="M315.51,77.11l-3.02-6.02l-1.82-0.1l-0.33,5.83l-2.39-0.14l0.84-14.57l5.03,0.29
		c1.12,0.06,2.05,0.31,2.81,0.75c0.75,0.44,1.3,0.99,1.65,1.67c0.35,0.68,0.5,1.42,0.45,2.23c-0.05,0.95-0.38,1.8-0.98,2.54
		s-1.48,1.22-2.64,1.44l3.26,6.24L315.51,77.11z M310.77,69.08l2.64,0.15c0.89,0.05,1.58-0.13,2.06-0.55
		c0.48-0.42,0.74-1.01,0.79-1.76c0.04-0.75-0.15-1.36-0.57-1.81c-0.42-0.45-1.09-0.7-2-0.76l-2.64-0.15L310.77,69.08z"/>
	<path class="st0" d="M335.51,64.53l-7.18,13.84l-2.75-0.33l-3.72-15.15l2.54,0.31l2.85,12.57L333,64.23L335.51,64.53z"/>
	<path class="st0" d="M340.63,65.45l-2.4,14.4l-2.36-0.39l2.4-14.4L340.63,65.45z"/>
	<path class="st0" d="M344.06,69.47c0.89-0.97,1.96-1.64,3.21-2.02c1.25-0.38,2.54-0.42,3.87-0.13c1.52,0.33,2.79,1,3.81,2
		s1.65,2.25,1.88,3.73l-2.81-0.61c-0.21-0.83-0.6-1.51-1.17-2.02s-1.29-0.86-2.16-1.05c-0.94-0.21-1.83-0.18-2.66,0.08
		c-0.83,0.26-1.54,0.75-2.13,1.45s-1,1.58-1.23,2.63c-0.23,1.05-0.22,2.02,0.02,2.91c0.24,0.88,0.69,1.62,1.33,2.21
		c0.64,0.59,1.44,0.99,2.38,1.2c0.86,0.19,1.66,0.17,2.4-0.06s1.37-0.67,1.91-1.35l2.81,0.61c-0.83,1.25-1.92,2.12-3.26,2.6
		c-1.34,0.48-2.78,0.55-4.29,0.22c-1.34-0.29-2.5-0.87-3.47-1.74c-0.97-0.86-1.66-1.92-2.07-3.17c-0.41-1.25-0.46-2.57-0.16-3.97
		S343.17,70.43,344.06,69.47z"/>
	<path class="st0" d="M363.15,72.47l-1.17,4.12l4.85,1.38l-0.53,1.88l-4.85-1.38l-1.22,4.3l5.45,1.55l-0.53,1.88l-7.76-2.2
		l3.99-14.06l7.76,2.2l-0.53,1.88L363.15,72.47z"/>
	<path class="st0" d="M370.24,87.46c-0.63-0.58-1.05-1.24-1.27-1.98c-0.22-0.74-0.19-1.51,0.08-2.3l2.42,0.83
		c-0.15,0.61-0.08,1.18,0.2,1.71s0.81,0.92,1.56,1.18c0.78,0.27,1.46,0.29,2.02,0.06c0.57-0.23,0.95-0.64,1.16-1.23
		c0.16-0.46,0.15-0.89-0.02-1.27c-0.17-0.38-0.43-0.73-0.78-1.02s-0.85-0.66-1.5-1.09c-0.82-0.55-1.47-1.04-1.95-1.48
		c-0.48-0.44-0.83-0.98-1.05-1.64s-0.18-1.41,0.11-2.27c0.27-0.79,0.71-1.42,1.31-1.88c0.6-0.46,1.32-0.73,2.14-0.8
		c0.82-0.07,1.71,0.05,2.65,0.38c1.34,0.46,2.32,1.17,2.94,2.13c0.62,0.96,0.78,2.04,0.48,3.24l-2.5-0.86
		c0.13-0.52,0.04-1.03-0.27-1.54c-0.31-0.51-0.83-0.88-1.54-1.13c-0.65-0.22-1.24-0.24-1.76-0.05s-0.89,0.6-1.11,1.22
		c-0.15,0.42-0.14,0.82,0.03,1.18s0.42,0.69,0.76,0.98s0.83,0.65,1.45,1.08c0.83,0.57,1.49,1.07,1.98,1.52
		c0.49,0.45,0.85,1,1.07,1.67c0.22,0.66,0.19,1.43-0.11,2.3c-0.24,0.7-0.66,1.3-1.25,1.79c-0.59,0.49-1.31,0.8-2.16,0.93
		c-0.85,0.13-1.77,0.03-2.75-0.31C371.65,88.48,370.87,88.03,370.24,87.46z"/>
	<path class="st0" d="M392.76,96.28c-0.56-0.64-0.91-1.35-1.05-2.11c-0.14-0.76-0.03-1.52,0.33-2.28l2.32,1.09
		c-0.22,0.59-0.21,1.17,0.01,1.72c0.23,0.56,0.7,1,1.42,1.34c0.75,0.35,1.42,0.45,2,0.28s1.02-0.53,1.28-1.1
		c0.21-0.44,0.25-0.87,0.12-1.27c-0.13-0.4-0.35-0.77-0.67-1.1c-0.31-0.33-0.77-0.75-1.37-1.25c-0.75-0.63-1.35-1.19-1.77-1.68
		c-0.43-0.49-0.72-1.07-0.86-1.74s-0.03-1.42,0.36-2.24c0.36-0.76,0.86-1.34,1.51-1.73c0.65-0.39,1.39-0.58,2.21-0.56
		s1.69,0.24,2.59,0.66c1.28,0.6,2.18,1.41,2.69,2.44c0.52,1.02,0.56,2.11,0.12,3.27l-2.39-1.13c0.19-0.5,0.15-1.02-0.1-1.56
		c-0.26-0.54-0.73-0.97-1.41-1.29c-0.62-0.29-1.2-0.37-1.74-0.24s-0.95,0.5-1.23,1.09c-0.19,0.41-0.22,0.8-0.1,1.17
		s0.34,0.73,0.65,1.06c0.31,0.33,0.75,0.74,1.33,1.23c0.76,0.65,1.36,1.23,1.8,1.73c0.44,0.5,0.73,1.09,0.88,1.77
		c0.15,0.68,0.03,1.44-0.36,2.28c-0.32,0.67-0.79,1.22-1.44,1.65c-0.64,0.43-1.39,0.66-2.25,0.69s-1.76-0.17-2.7-0.61
		C394.05,97.46,393.33,96.93,392.76,96.28z"/>
	<path class="st0" d="M410.3,91.23L408.27,95l4.44,2.39l-0.93,1.72l-4.44-2.39l-2.12,3.94l4.99,2.69l-0.92,1.72l-7.1-3.82
		l6.92-12.87l7.1,3.82l-0.92,1.72L410.3,91.23z"/>
	<path class="st0" d="M418.43,110.51l0.17-6.73l-1.56-0.95l-3.04,4.98l-2.04-1.25l7.61-12.46l4.3,2.63
		c0.96,0.58,1.66,1.25,2.12,1.99c0.46,0.74,0.68,1.49,0.67,2.25c-0.01,0.76-0.23,1.49-0.66,2.18c-0.5,0.81-1.18,1.41-2.06,1.78
		c-0.88,0.37-1.88,0.38-3,0.02l-0.07,7.04L418.43,110.51z M418.04,101.2l2.26,1.38c0.76,0.47,1.46,0.63,2.08,0.48
		c0.62-0.15,1.13-0.54,1.52-1.19c0.39-0.65,0.51-1.27,0.35-1.86c-0.16-0.6-0.63-1.13-1.4-1.61l-2.26-1.38L418.04,101.2z"/>
	<path class="st0" d="M441.99,108.85l-12.86,8.81l-2.27-1.59l3.86-15.11l2.1,1.47l-3.42,12.42l10.52-7.45L441.99,108.85z"/>
	<path class="st0" d="M446.08,112.08l-8.91,11.56l-1.9-1.46l8.91-11.56L446.08,112.08z"/>
	<path class="st0" d="M447.22,117.25c1.24-0.43,2.5-0.52,3.79-0.27c1.28,0.26,2.44,0.82,3.47,1.7c1.18,1.01,1.99,2.19,2.42,3.56
		s0.39,2.76-0.1,4.18l-2.19-1.87c0.21-0.83,0.18-1.61-0.08-2.33s-0.74-1.37-1.41-1.94c-0.74-0.63-1.53-1.02-2.39-1.18
		c-0.86-0.16-1.71-0.07-2.56,0.27c-0.85,0.34-1.63,0.92-2.33,1.74s-1.15,1.68-1.35,2.57c-0.2,0.9-0.16,1.76,0.13,2.58
		c0.29,0.83,0.8,1.55,1.54,2.18c0.67,0.57,1.38,0.93,2.14,1.08s1.53,0.05,2.32-0.29l2.19,1.87c-1.32,0.71-2.69,0.96-4.1,0.75
		c-1.41-0.21-2.71-0.82-3.89-1.83c-1.04-0.89-1.79-1.94-2.24-3.17s-0.56-2.48-0.33-3.77s0.81-2.48,1.73-3.57
		C444.9,118.44,445.98,117.69,447.22,117.25z"/>
	<path class="st0" d="M462.63,128.88l-2.97,3.09l3.63,3.5l-1.36,1.41l-3.63-3.5l-3.1,3.22l4.08,3.93l-1.36,1.41l-5.81-5.59
		l10.14-10.53l5.81,5.59l-1.36,1.41L462.63,128.88z"/>
	<path class="st0" d="M461.85,145.44c-0.28-0.81-0.35-1.59-0.19-2.35c0.16-0.76,0.54-1.42,1.15-2l1.75,1.87
		c-0.42,0.47-0.63,1.01-0.63,1.61s0.28,1.19,0.82,1.77c0.56,0.6,1.15,0.94,1.76,1c0.61,0.07,1.14-0.12,1.6-0.55
		c0.36-0.33,0.55-0.71,0.58-1.13s-0.04-0.84-0.21-1.27c-0.17-0.43-0.44-0.98-0.81-1.67c-0.47-0.87-0.81-1.61-1.02-2.22
		s-0.27-1.26-0.16-1.94s0.5-1.33,1.17-1.95c0.61-0.57,1.29-0.92,2.04-1.04c0.75-0.12,1.5-0.02,2.26,0.3s1.48,0.85,2.16,1.58
		c0.96,1.03,1.5,2.12,1.6,3.26c0.1,1.14-0.27,2.17-1.1,3.08l-1.81-1.93c0.36-0.39,0.52-0.89,0.48-1.48
		c-0.04-0.6-0.32-1.17-0.83-1.72c-0.47-0.5-0.98-0.79-1.53-0.87c-0.55-0.08-1.07,0.11-1.55,0.56c-0.33,0.31-0.5,0.66-0.53,1.05
		c-0.02,0.4,0.05,0.8,0.21,1.23c0.16,0.42,0.42,0.97,0.78,1.63c0.46,0.89,0.81,1.65,1.03,2.27c0.22,0.63,0.27,1.28,0.16,1.97
		c-0.11,0.69-0.51,1.35-1.18,1.98c-0.54,0.51-1.19,0.84-1.94,1c-0.75,0.16-1.54,0.09-2.35-0.19s-1.57-0.81-2.28-1.56
		C462.61,147.01,462.13,146.25,461.85,145.44z"/>
	<path class="st0" d="M477.58,163.79c-0.2-0.83-0.18-1.62,0.06-2.35c0.24-0.74,0.69-1.36,1.36-1.86l1.54,2.05
		c-0.47,0.42-0.74,0.93-0.8,1.53c-0.06,0.6,0.15,1.21,0.63,1.85c0.5,0.66,1.04,1.06,1.64,1.19c0.6,0.13,1.15,0.01,1.65-0.37
		c0.39-0.29,0.62-0.65,0.7-1.06c0.07-0.41,0.05-0.84-0.07-1.29c-0.12-0.44-0.33-1.02-0.63-1.75c-0.37-0.91-0.63-1.68-0.78-2.32
		c-0.15-0.63-0.13-1.28,0.05-1.94s0.64-1.27,1.37-1.81c0.67-0.5,1.39-0.78,2.14-0.82s1.5,0.14,2.22,0.54c0.72,0.4,1.38,1,1.98,1.8
		c0.85,1.13,1.26,2.27,1.24,3.42c-0.02,1.15-0.5,2.13-1.43,2.95l-1.59-2.12c0.4-0.35,0.61-0.83,0.64-1.42
		c0.03-0.6-0.19-1.2-0.64-1.8c-0.41-0.55-0.89-0.89-1.43-1.03s-1.07-0.01-1.6,0.39c-0.36,0.27-0.57,0.6-0.64,0.99
		s-0.04,0.8,0.08,1.24c0.12,0.44,0.32,1.01,0.6,1.71c0.37,0.93,0.63,1.72,0.78,2.37c0.15,0.65,0.14,1.31-0.05,1.98
		s-0.65,1.29-1.39,1.84c-0.59,0.45-1.27,0.71-2.04,0.78s-1.54-0.07-2.31-0.44c-0.78-0.37-1.48-0.97-2.1-1.8
		C478.17,165.44,477.78,164.63,477.58,163.79z"/>
	<path class="st0" d="M495.44,167.54l-3.56,2.38l2.8,4.19l-1.62,1.09l-2.8-4.19l-3.72,2.49l3.15,4.71l-1.62,1.09l-4.49-6.7
		l12.15-8.13l4.49,6.7l-1.62,1.09L495.44,167.54z"/>
	<path class="st0" d="M493.59,188.4l3.31-5.87l-0.93-1.57l-5.02,2.98l-1.22-2.06l12.55-7.44l2.57,4.34
		c0.57,0.96,0.89,1.88,0.95,2.75c0.06,0.87-0.1,1.64-0.47,2.3c-0.37,0.67-0.9,1.21-1.6,1.62c-0.82,0.49-1.7,0.69-2.65,0.61
		s-1.84-0.54-2.67-1.39l-3.36,6.19L493.59,188.4z M497.62,179.99l1.35,2.28c0.46,0.77,0.99,1.24,1.61,1.4
		c0.62,0.16,1.25,0.05,1.9-0.33c0.65-0.39,1.04-0.88,1.18-1.48c0.14-0.6-0.02-1.3-0.49-2.08l-1.35-2.28L497.62,179.99z"/>
	<path class="st0" d="M515.2,197.98l-15.49,1.76l-1.26-2.47l10.49-11.54l1.17,2.28l-8.84,9.37l12.79-1.65L515.2,197.98z"/>
	<path class="st0" d="M517.29,202.75L504,208.78l-0.99-2.18l13.29-6.04L517.29,202.75z"/>
	<path class="st0" d="M515.87,207.84c1.3,0.2,2.46,0.71,3.47,1.54c1.01,0.83,1.77,1.87,2.27,3.13c0.57,1.45,0.73,2.87,0.46,4.28
		c-0.26,1.41-0.95,2.62-2.05,3.64l-1.06-2.68c0.58-0.63,0.92-1.33,1.02-2.1c0.1-0.76-0.01-1.56-0.33-2.38
		c-0.36-0.9-0.87-1.62-1.56-2.16c-0.68-0.54-1.48-0.86-2.39-0.96c-0.91-0.1-1.87,0.05-2.87,0.45c-1,0.4-1.8,0.94-2.4,1.64
		c-0.6,0.7-0.96,1.48-1.09,2.34s-0.02,1.75,0.33,2.65c0.32,0.82,0.79,1.47,1.38,1.96s1.33,0.76,2.18,0.83l1.06,2.68
		c-1.5,0.01-2.83-0.41-3.98-1.26c-1.15-0.85-2.01-1.99-2.58-3.44c-0.5-1.28-0.67-2.56-0.49-3.85c0.17-1.29,0.67-2.45,1.48-3.49
		c0.81-1.04,1.88-1.82,3.21-2.34C513.26,207.8,514.58,207.64,515.87,207.84z"/>
	<path class="st0" d="M524.03,225.37l-4.07,1.33l1.56,4.79l-1.86,0.6l-1.56-4.79l-4.25,1.39l1.76,5.39l-1.86,0.6l-2.5-7.67
		l13.9-4.53l2.5,7.67l-1.86,0.6L524.03,225.37z"/>
	<path class="st0" d="M515.54,239.59c0.13-0.85,0.44-1.57,0.93-2.16c0.49-0.6,1.15-1,1.96-1.22l0.66,2.48
		c-0.59,0.22-1.03,0.59-1.31,1.12s-0.31,1.18-0.11,1.95c0.21,0.8,0.57,1.37,1.08,1.71c0.5,0.34,1.06,0.43,1.67,0.27
		c0.47-0.13,0.82-0.37,1.05-0.72c0.22-0.36,0.36-0.76,0.41-1.22c0.05-0.46,0.08-1.07,0.07-1.85c0-0.98,0.04-1.8,0.14-2.44
		s0.35-1.24,0.77-1.78c0.42-0.55,1.07-0.94,1.95-1.17c0.81-0.22,1.58-0.2,2.29,0.04c0.72,0.24,1.34,0.69,1.86,1.33
		s0.91,1.45,1.16,2.41c0.37,1.37,0.32,2.58-0.13,3.63s-1.26,1.79-2.42,2.2l-0.68-2.56c0.5-0.18,0.88-0.54,1.12-1.08
		s0.27-1.18,0.08-1.91c-0.18-0.66-0.49-1.16-0.94-1.49c-0.45-0.33-0.99-0.41-1.63-0.24c-0.43,0.12-0.75,0.34-0.96,0.68
		c-0.21,0.34-0.34,0.73-0.39,1.18s-0.08,1.05-0.08,1.8c-0.01,1-0.06,1.83-0.16,2.49c-0.1,0.66-0.36,1.26-0.79,1.82
		c-0.42,0.56-1.08,0.95-1.98,1.19c-0.72,0.19-1.44,0.18-2.18-0.04c-0.74-0.22-1.4-0.64-1.98-1.27c-0.58-0.63-1.01-1.45-1.27-2.45
		C515.48,241.34,515.42,240.44,515.54,239.59z"/>
	<path class="st0" d="M520.78,263.22c0.22-0.83,0.61-1.51,1.16-2.05c0.55-0.54,1.25-0.87,2.08-1l0.39,2.53
		c-0.61,0.15-1.09,0.48-1.42,0.97c-0.33,0.5-0.44,1.14-0.32,1.93c0.12,0.82,0.42,1.42,0.88,1.82c0.46,0.4,1.01,0.55,1.63,0.45
		c0.48-0.07,0.86-0.28,1.12-0.61c0.26-0.33,0.44-0.72,0.54-1.17c0.1-0.45,0.19-1.06,0.27-1.84c0.1-0.98,0.24-1.78,0.41-2.41
		s0.49-1.19,0.96-1.69c0.48-0.5,1.16-0.82,2.06-0.95c0.83-0.13,1.59-0.03,2.27,0.29c0.69,0.32,1.25,0.83,1.7,1.52
		s0.75,1.54,0.9,2.52c0.21,1.4,0.04,2.6-0.52,3.6c-0.56,1-1.44,1.64-2.65,1.93l-0.4-2.62c0.52-0.12,0.93-0.44,1.24-0.95
		c0.3-0.51,0.4-1.15,0.28-1.89c-0.1-0.68-0.36-1.21-0.77-1.58c-0.41-0.38-0.94-0.51-1.59-0.41c-0.44,0.07-0.79,0.26-1.03,0.57
		c-0.24,0.31-0.42,0.69-0.52,1.13c-0.1,0.44-0.2,1.04-0.28,1.79c-0.12,1-0.26,1.81-0.43,2.46c-0.17,0.64-0.5,1.22-0.98,1.72
		c-0.48,0.51-1.18,0.83-2.09,0.97c-0.73,0.11-1.46,0.02-2.17-0.27c-0.71-0.29-1.32-0.79-1.83-1.48c-0.51-0.69-0.84-1.55-1-2.58
		C520.53,264.94,520.56,264.04,520.78,263.22z"/>
	<path class="st0" d="M534.76,274.93l-4.26,0.42l0.5,5.02l-1.94,0.19l-0.5-5.02l-4.45,0.44l0.56,5.64l-1.94,0.19l-0.79-8.02
		l14.54-1.44l0.79,8.02l-1.94,0.19L534.76,274.93z"/>
	<path class="st0" d="M523.3,292.45l5.68-3.62l-0.08-1.83l-5.83,0.26l-0.11-2.39l14.58-0.65l0.22,5.04c0.05,1.12-0.1,2.08-0.46,2.87
		s-0.86,1.4-1.5,1.81s-1.37,0.64-2.18,0.68c-0.95,0.04-1.83-0.2-2.63-0.71s-1.37-1.34-1.7-2.48l-5.88,3.88L523.3,292.45z
		 M530.81,286.93l0.12,2.64c0.04,0.89,0.29,1.56,0.76,1.99c0.47,0.43,1.08,0.63,1.83,0.6c0.76-0.03,1.34-0.28,1.74-0.75
		c0.41-0.47,0.59-1.15,0.55-2.06l-0.12-2.64L530.81,286.93z"/>
	<path class="st0" d="M537.85,311.06l-14.5-5.73l0.05-2.77l14.69-5.25l-0.04,2.56l-12.21,4.11l12.06,4.56L537.85,311.06z"/>
	<path class="st0" d="M537.46,316.25l-14.57-0.91l0.15-2.39l14.57,0.91L537.46,316.25z"/>
	<path class="st0" d="M533.82,320.07c1.05,0.79,1.83,1.78,2.34,2.99c0.51,1.2,0.68,2.48,0.53,3.83c-0.17,1.54-0.71,2.88-1.6,3.99
		c-0.89,1.12-2.07,1.87-3.52,2.26l0.32-2.86c0.81-0.29,1.44-0.75,1.89-1.37c0.45-0.63,0.72-1.38,0.82-2.25
		c0.11-0.96-0.01-1.84-0.36-2.64c-0.35-0.8-0.9-1.46-1.66-1.97c-0.76-0.52-1.67-0.83-2.75-0.95s-2.03-0.01-2.89,0.32
		c-0.85,0.33-1.54,0.85-2.07,1.55c-0.52,0.7-0.84,1.53-0.94,2.49c-0.1,0.88,0,1.67,0.3,2.38c0.3,0.71,0.81,1.3,1.54,1.76l-0.32,2.86
		c-1.33-0.7-2.3-1.69-2.92-2.98c-0.62-1.29-0.84-2.7-0.67-4.25c0.15-1.36,0.61-2.57,1.37-3.63c0.76-1.06,1.74-1.85,2.94-2.39
		c1.2-0.54,2.51-0.72,3.93-0.56C531.53,318.81,532.77,319.28,533.82,320.07z"/>
	<path class="st0" d="M532.8,339.38l-4.22-0.74l-0.87,4.96l-1.92-0.34l0.87-4.96l-4.41-0.77l-0.98,5.58l-1.92-0.34l1.39-7.94
		l14.4,2.51l-1.39,7.94l-1.92-0.34L532.8,339.38z"/>
	<path class="st0" d="M518.64,347.98c0.51-0.69,1.12-1.18,1.84-1.47s1.48-0.35,2.3-0.16l-0.58,2.5c-0.63-0.09-1.19,0.04-1.68,0.38
		c-0.5,0.34-0.83,0.9-1.01,1.67c-0.19,0.8-0.14,1.48,0.15,2.02c0.29,0.54,0.73,0.88,1.35,1.02c0.48,0.11,0.9,0.06,1.26-0.15
		c0.37-0.21,0.68-0.5,0.94-0.88c0.26-0.38,0.57-0.91,0.93-1.61c0.46-0.87,0.88-1.57,1.27-2.09c0.39-0.52,0.89-0.92,1.52-1.21
		c0.63-0.29,1.38-0.33,2.27-0.12c0.82,0.19,1.49,0.56,2.01,1.11c0.52,0.55,0.86,1.23,1.02,2.04c0.16,0.81,0.12,1.7-0.1,2.67
		c-0.32,1.38-0.92,2.43-1.82,3.15c-0.89,0.72-1.95,0.99-3.17,0.81l0.59-2.58c0.53,0.08,1.03-0.06,1.5-0.43
		c0.47-0.37,0.79-0.92,0.96-1.65c0.15-0.67,0.11-1.25-0.13-1.75s-0.69-0.83-1.33-0.97c-0.44-0.1-0.83-0.05-1.17,0.15
		c-0.34,0.2-0.64,0.49-0.9,0.86c-0.26,0.37-0.56,0.89-0.92,1.56c-0.48,0.88-0.91,1.59-1.31,2.12c-0.4,0.53-0.91,0.95-1.55,1.24
		s-1.4,0.33-2.3,0.13c-0.72-0.17-1.36-0.52-1.91-1.06c-0.55-0.54-0.94-1.22-1.15-2.05c-0.22-0.83-0.21-1.75,0.02-2.76
		C517.76,349.49,518.12,348.66,518.64,347.98z"/>
	<path class="st0" d="M512.19,371.3c0.58-0.63,1.24-1.05,1.99-1.26c0.74-0.22,1.51-0.18,2.3,0.09l-0.84,2.42
		c-0.61-0.16-1.18-0.09-1.71,0.19c-0.53,0.28-0.92,0.8-1.19,1.55c-0.27,0.78-0.3,1.45-0.07,2.02c0.22,0.57,0.63,0.96,1.23,1.16
		c0.46,0.16,0.89,0.16,1.27-0.01c0.38-0.17,0.73-0.43,1.03-0.78c0.3-0.35,0.67-0.85,1.1-1.5c0.55-0.82,1.05-1.46,1.49-1.94
		s0.99-0.82,1.64-1.04c0.65-0.22,1.41-0.18,2.27,0.12c0.79,0.28,1.42,0.72,1.88,1.32c0.46,0.6,0.72,1.32,0.79,2.14
		c0.07,0.82-0.06,1.71-0.39,2.64c-0.47,1.33-1.18,2.31-2.15,2.93s-2.05,0.77-3.24,0.46l0.87-2.5c0.52,0.14,1.03,0.05,1.54-0.26
		s0.89-0.82,1.14-1.54c0.23-0.65,0.25-1.23,0.06-1.76c-0.19-0.52-0.59-0.9-1.21-1.11c-0.42-0.15-0.82-0.14-1.18,0.02
		c-0.36,0.16-0.69,0.42-0.99,0.76c-0.3,0.34-0.66,0.82-1.08,1.45c-0.57,0.82-1.08,1.48-1.53,1.97c-0.45,0.49-1.01,0.84-1.67,1.06
		c-0.66,0.22-1.43,0.18-2.3-0.12c-0.7-0.25-1.3-0.66-1.79-1.26c-0.49-0.59-0.8-1.32-0.92-2.17c-0.12-0.85-0.02-1.77,0.32-2.74
		C511.16,372.7,511.61,371.93,512.19,371.3z"/>
	<path class="st0" d="M519.05,388.19l-3.96-1.63l-1.91,4.66l-1.81-0.74l1.91-4.66l-4.14-1.7l-2.15,5.25l-1.81-0.74l3.06-7.46
		l13.52,5.55l-3.06,7.46l-1.81-0.74L519.05,388.19z"/>
	<path class="st0" d="M500.7,398.29l6.71-0.52l0.79-1.65l-5.27-2.51l1.03-2.16l13.17,6.28l-2.17,4.55
		c-0.48,1.01-1.07,1.78-1.75,2.32c-0.69,0.53-1.41,0.83-2.17,0.9s-1.51-0.08-2.24-0.43c-0.86-0.41-1.52-1.03-1.98-1.86
		c-0.46-0.83-0.57-1.83-0.33-2.99l-7.01,0.66L500.7,398.29z M509.92,396.94l-1.14,2.39c-0.39,0.81-0.47,1.51-0.27,2.12
		s0.65,1.07,1.34,1.39s1.31,0.38,1.89,0.16c0.58-0.22,1.06-0.74,1.46-1.56l1.14-2.39L509.92,396.94z"/>
	<path class="st0" d="M504.78,421.55l-10.09-11.88l1.35-2.42l15.43,2.29l-1.25,2.24l-12.71-2.12l8.49,9.7L504.78,421.55z"/>
	<path class="st0" d="M501.97,425.97l-12.42-7.67l1.26-2.04l12.42,7.67L501.97,425.97z"/>
	<path class="st0" d="M496.96,427.62c0.56,1.19,0.77,2.44,0.65,3.74c-0.12,1.3-0.57,2.51-1.34,3.63c-0.88,1.28-1.98,2.2-3.29,2.77
		c-1.31,0.56-2.7,0.67-4.17,0.33l1.63-2.37c0.85,0.12,1.62,0.02,2.31-0.32c0.69-0.34,1.29-0.87,1.79-1.6
		c0.55-0.8,0.86-1.63,0.93-2.5c0.07-0.87-0.11-1.71-0.53-2.52c-0.43-0.81-1.08-1.52-1.97-2.13c-0.89-0.61-1.79-0.97-2.7-1.08
		c-0.91-0.11-1.76,0.02-2.55,0.4s-1.46,0.96-2.01,1.75c-0.5,0.73-0.78,1.47-0.85,2.24c-0.07,0.77,0.11,1.53,0.53,2.27l-1.63,2.37
		c-0.84-1.24-1.23-2.58-1.17-4c0.06-1.43,0.54-2.78,1.42-4.06c0.78-1.13,1.75-1.98,2.92-2.55c1.17-0.57,2.41-0.81,3.72-0.72
		c1.31,0.09,2.56,0.55,3.73,1.36C495.54,425.43,496.41,426.43,496.96,427.62z"/>
	<path class="st0" d="M486.97,444.15l-3.37-2.64l-3.11,3.97l-1.54-1.2l3.11-3.97l-3.52-2.76l-3.49,4.47l-1.54-1.2l4.97-6.35
		l11.51,9.01l-4.97,6.35l-1.54-1.2L486.97,444.15z"/>
	<path class="st0" d="M470.42,445.05c0.77-0.37,1.54-0.51,2.31-0.43s1.47,0.39,2.1,0.94l-1.68,1.93c-0.51-0.37-1.07-0.53-1.66-0.46
		c-0.6,0.07-1.16,0.4-1.68,1c-0.54,0.62-0.82,1.24-0.82,1.85c0,0.61,0.23,1.12,0.71,1.54c0.37,0.32,0.76,0.48,1.18,0.46
		c0.42-0.01,0.83-0.13,1.24-0.34c0.41-0.21,0.93-0.54,1.58-0.98c0.82-0.55,1.52-0.97,2.1-1.25c0.59-0.28,1.22-0.4,1.91-0.35
		c0.69,0.04,1.37,0.36,2.06,0.96c0.63,0.55,1.05,1.19,1.25,1.92c0.2,0.73,0.18,1.49-0.07,2.28c-0.24,0.79-0.69,1.56-1.35,2.31
		c-0.93,1.07-1.96,1.71-3.08,1.92c-1.13,0.21-2.19-0.04-3.18-0.78l1.74-1.99c0.43,0.32,0.94,0.43,1.53,0.33
		c0.59-0.1,1.13-0.43,1.63-1c0.45-0.52,0.69-1.05,0.71-1.61c0.02-0.56-0.22-1.05-0.71-1.48c-0.34-0.29-0.71-0.43-1.1-0.42
		c-0.4,0.02-0.79,0.13-1.2,0.33s-0.92,0.52-1.54,0.94c-0.84,0.55-1.55,0.97-2.15,1.26c-0.6,0.28-1.25,0.41-1.95,0.36
		c-0.7-0.04-1.39-0.37-2.09-0.97c-0.56-0.49-0.96-1.1-1.19-1.83c-0.23-0.73-0.25-1.52-0.05-2.36c0.2-0.84,0.64-1.65,1.32-2.43
		C468.94,445.97,469.65,445.42,470.42,445.05z"/>
	<path class="st0" d="M453.77,462.6c0.81-0.28,1.59-0.34,2.35-0.18c0.76,0.16,1.42,0.55,1.99,1.16l-1.88,1.74
		c-0.47-0.42-1-0.64-1.6-0.63s-1.19,0.27-1.78,0.81c-0.61,0.56-0.94,1.14-1.01,1.75c-0.07,0.61,0.11,1.14,0.54,1.6
		c0.33,0.36,0.71,0.56,1.13,0.59s0.84-0.04,1.27-0.2c0.43-0.17,0.99-0.43,1.67-0.8c0.87-0.46,1.61-0.8,2.22-1.01
		c0.61-0.21,1.26-0.26,1.94-0.15c0.68,0.12,1.33,0.51,1.95,1.18c0.57,0.62,0.92,1.3,1.03,2.05c0.12,0.75,0.02,1.5-0.31,2.26
		s-0.86,1.48-1.59,2.15c-1.04,0.96-2.13,1.49-3.27,1.58c-1.14,0.09-2.17-0.28-3.08-1.12l1.94-1.8c0.39,0.36,0.89,0.53,1.48,0.49
		s1.17-0.31,1.73-0.82c0.5-0.47,0.8-0.97,0.88-1.53s-0.1-1.07-0.55-1.55c-0.3-0.33-0.65-0.51-1.05-0.53c-0.4-0.03-0.8,0.04-1.23,0.2
		c-0.42,0.16-0.97,0.42-1.64,0.77c-0.89,0.46-1.65,0.8-2.28,1.02c-0.63,0.22-1.29,0.27-1.98,0.15c-0.69-0.12-1.35-0.51-1.97-1.19
		c-0.5-0.54-0.83-1.19-0.99-1.95c-0.15-0.75-0.08-1.54,0.2-2.35c0.29-0.81,0.81-1.57,1.58-2.27
		C452.19,463.35,452.96,462.88,453.77,462.6z"/>
	<path class="st0" d="M451.88,480.74l-2.74-3.3l-3.88,3.22l-1.25-1.5l3.88-3.22l-2.86-3.44l-4.36,3.62l-1.25-1.5l6.2-5.15
		l9.34,11.25l-6.21,5.15l-1.25-1.5L451.88,480.74z"/>
	<path class="st0" d="M430.94,481.05l6.18,2.69l1.47-1.09l-3.48-4.69l1.92-1.43l8.69,11.72l-4.05,3c-0.9,0.67-1.78,1.08-2.64,1.22
		c-0.86,0.15-1.64,0.07-2.34-0.23s-1.29-0.77-1.78-1.43c-0.57-0.76-0.86-1.62-0.88-2.58s0.35-1.88,1.1-2.79l-6.5-2.71L430.94,481.05
		z M439.72,484.19l-2.12,1.58c-0.72,0.53-1.13,1.12-1.23,1.75c-0.1,0.63,0.08,1.25,0.53,1.86c0.45,0.61,0.98,0.95,1.6,1.03
		c0.61,0.08,1.29-0.16,2.02-0.7l2.12-1.58L439.72,484.19z"/>
	<path class="st0" d="M423.64,503.52l-3.35-15.23l2.33-1.51l12.56,9.25l-2.15,1.39l-10.24-7.83l2.96,12.55L423.64,503.52z"/>
	<path class="st0" d="M419.12,506.1l-7.38-12.59l2.07-1.21l7.38,12.59L419.12,506.1z"/>
	<path class="st0" d="M413.92,505.21c-0.06,1.31-0.46,2.52-1.17,3.61c-0.72,1.09-1.68,1.95-2.88,2.58c-1.38,0.72-2.78,1.02-4.21,0.9
		c-1.43-0.12-2.71-0.67-3.84-1.66l2.55-1.33c0.69,0.51,1.42,0.77,2.19,0.8s1.55-0.17,2.33-0.58c0.86-0.45,1.52-1.04,1.99-1.77
		s0.71-1.56,0.71-2.48c0-0.92-0.24-1.85-0.74-2.81c-0.5-0.96-1.12-1.7-1.88-2.22c-0.75-0.52-1.57-0.8-2.44-0.85
		c-0.87-0.04-1.74,0.16-2.6,0.61c-0.78,0.41-1.38,0.93-1.8,1.58c-0.42,0.65-0.62,1.4-0.6,2.25l-2.55,1.33
		c-0.16-1.49,0.12-2.86,0.84-4.09c0.72-1.23,1.78-2.21,3.15-2.92c1.22-0.63,2.47-0.93,3.77-0.89c1.3,0.04,2.51,0.41,3.62,1.11
		s2,1.68,2.66,2.95C413.69,502.6,413.99,503.89,413.92,505.21z"/>
	<path class="st0" d="M397.33,515.14l-1.74-3.91l-4.6,2.05l-0.79-1.78l4.6-2.05l-1.82-4.09l-5.18,2.31l-0.79-1.78l7.37-3.28
		l5.94,13.35l-7.37,3.28l-0.79-1.78L397.33,515.14z"/>
	<path class="st0" d="M382.3,508.17c0.85,0.04,1.6,0.28,2.25,0.7c0.64,0.43,1.12,1.04,1.42,1.82l-2.39,0.91
		c-0.28-0.57-0.69-0.96-1.25-1.18c-0.56-0.22-1.21-0.19-1.95,0.09c-0.77,0.29-1.3,0.71-1.59,1.25c-0.29,0.54-0.32,1.1-0.1,1.69
		c0.17,0.46,0.45,0.78,0.83,0.96c0.38,0.19,0.8,0.28,1.26,0.29c0.46,0,1.08-0.04,1.85-0.12c0.98-0.11,1.79-0.14,2.44-0.11
		c0.65,0.03,1.27,0.22,1.85,0.58s1.04,0.96,1.37,1.82c0.3,0.78,0.37,1.55,0.2,2.28c-0.17,0.74-0.54,1.4-1.13,1.98
		s-1.34,1.05-2.27,1.41c-1.32,0.5-2.53,0.59-3.62,0.25c-1.1-0.34-1.91-1.07-2.44-2.18l2.47-0.94c0.23,0.48,0.63,0.82,1.19,1.01
		c0.57,0.19,1.2,0.15,1.91-0.12c0.64-0.25,1.1-0.61,1.38-1.09c0.28-0.48,0.3-1.03,0.07-1.64c-0.16-0.42-0.42-0.71-0.78-0.88
		c-0.36-0.17-0.76-0.26-1.21-0.27s-1.05,0.03-1.8,0.1c-1,0.1-1.83,0.13-2.49,0.1s-1.29-0.23-1.89-0.59
		c-0.6-0.36-1.06-0.98-1.39-1.84c-0.26-0.69-0.33-1.42-0.19-2.17c0.14-0.76,0.49-1.46,1.06-2.1c0.57-0.65,1.34-1.15,2.31-1.52
		C380.56,508.29,381.44,508.13,382.3,508.17z"/>
	<path class="st0" d="M359.34,515.84c0.85,0.13,1.56,0.45,2.16,0.94c0.59,0.5,1,1.15,1.21,1.96l-2.48,0.65
		c-0.21-0.59-0.58-1.03-1.12-1.31c-0.53-0.28-1.18-0.32-1.95-0.12c-0.8,0.21-1.37,0.57-1.72,1.07s-0.44,1.06-0.28,1.67
		c0.12,0.47,0.36,0.82,0.72,1.05c0.36,0.22,0.76,0.36,1.22,0.42c0.46,0.05,1.07,0.08,1.86,0.08c0.99,0,1.8,0.05,2.44,0.15
		c0.64,0.1,1.23,0.36,1.78,0.78c0.54,0.42,0.93,1.07,1.16,1.95c0.21,0.81,0.2,1.58-0.05,2.29c-0.25,0.72-0.69,1.33-1.34,1.85
		c-0.65,0.52-1.45,0.9-2.41,1.15c-1.37,0.36-2.58,0.31-3.63-0.15c-1.05-0.46-1.78-1.27-2.19-2.43l2.56-0.67
		c0.18,0.5,0.53,0.88,1.08,1.13c0.54,0.25,1.18,0.28,1.91,0.09c0.66-0.17,1.16-0.48,1.49-0.93c0.33-0.45,0.41-0.99,0.25-1.63
		c-0.11-0.43-0.34-0.75-0.68-0.96c-0.34-0.21-0.73-0.34-1.18-0.4c-0.45-0.06-1.05-0.09-1.8-0.09c-1-0.01-1.83-0.07-2.49-0.17
		c-0.66-0.1-1.26-0.37-1.81-0.79c-0.55-0.43-0.95-1.09-1.18-1.98c-0.19-0.72-0.17-1.45,0.05-2.18c0.22-0.74,0.65-1.4,1.29-1.98
		c0.64-0.58,1.46-1,2.46-1.26C357.6,515.76,358.5,515.71,359.34,515.84z"/>
	<path class="st0" d="M349.11,530.96l-0.86-4.2l-4.94,1.01l-0.39-1.91l4.94-1.01l-0.9-4.38l-5.55,1.14l-0.39-1.91l7.9-1.62
		l2.93,14.32l-7.9,1.62l-0.39-1.91L349.11,530.96z"/>
	<path class="st0" d="M330.53,521.35l4.18,5.28l1.81-0.27l-0.86-5.77l2.37-0.35l2.14,14.44l-4.99,0.74
		c-1.11,0.16-2.08,0.11-2.9-0.17s-1.48-0.71-1.96-1.3c-0.48-0.59-0.78-1.29-0.89-2.1c-0.14-0.94,0.01-1.84,0.44-2.69
		c0.43-0.85,1.2-1.5,2.29-1.94l-4.46-5.45L330.53,521.35z M336.8,528.26l-2.62,0.39c-0.89,0.13-1.52,0.45-1.91,0.96
		c-0.38,0.51-0.52,1.14-0.41,1.89c0.11,0.75,0.42,1.3,0.92,1.66c0.51,0.36,1.21,0.47,2.11,0.33l2.62-0.39L336.8,528.26z"/>
	<path class="st0" d="M313.48,537.73l4.23-15l2.76-0.23l6.71,14.08l-2.55,0.22l-5.33-11.73l-3.31,12.46L313.48,537.73z"/>
	<path class="st0" d="M308.28,537.86l-0.57-14.58l2.39-0.09l0.57,14.58L308.28,537.86z"/>
	<path class="st0" d="M304.06,534.67c-0.68,1.12-1.6,1.99-2.75,2.61c-1.15,0.62-2.4,0.92-3.76,0.89c-1.55-0.03-2.93-0.43-4.13-1.21
		c-1.2-0.78-2.06-1.88-2.58-3.29l2.88,0.05c0.37,0.78,0.88,1.36,1.55,1.75c0.67,0.39,1.44,0.59,2.32,0.6
		c0.97,0.02,1.83-0.19,2.59-0.61c0.76-0.42,1.36-1.04,1.8-1.84c0.44-0.8,0.67-1.75,0.69-2.82s-0.18-2.03-0.59-2.84
		c-0.41-0.82-1-1.46-1.74-1.91c-0.75-0.45-1.61-0.69-2.57-0.7c-0.88-0.01-1.66,0.16-2.34,0.53s-1.21,0.93-1.6,1.7l-2.88-0.05
		c0.57-1.39,1.46-2.46,2.69-3.19c1.22-0.74,2.61-1.09,4.17-1.07c1.37,0.02,2.62,0.36,3.74,1.02c1.12,0.66,2.01,1.56,2.66,2.7
		s0.96,2.43,0.94,3.86C305.1,532.27,304.75,533.55,304.06,534.67z"/>
	<path class="st0" d="M284.83,535.6l0.3-4.27l-5.03-0.35l0.14-1.95l5.03,0.35l0.31-4.46l-5.66-0.4l0.14-1.95l8.04,0.56l-1.02,14.58
		l-8.04-0.56l0.14-1.95L284.83,535.6z"/>
	<path class="st0" d="M274.81,522.39c0.74,0.44,1.29,1,1.65,1.68c0.37,0.68,0.5,1.44,0.4,2.27l-2.54-0.31
		c0.02-0.63-0.16-1.18-0.55-1.63c-0.39-0.46-0.98-0.74-1.77-0.83c-0.82-0.1-1.48,0.02-1.99,0.36c-0.51,0.34-0.8,0.82-0.88,1.45
		c-0.06,0.49,0.03,0.9,0.28,1.24s0.57,0.62,0.98,0.84c0.4,0.22,0.97,0.47,1.69,0.76c0.91,0.37,1.65,0.71,2.21,1.05
		c0.56,0.33,1.01,0.79,1.36,1.38c0.35,0.59,0.47,1.34,0.36,2.25c-0.1,0.83-0.4,1.54-0.9,2.11c-0.49,0.57-1.14,0.98-1.93,1.22
		c-0.79,0.24-1.68,0.3-2.67,0.18c-1.4-0.17-2.51-0.67-3.32-1.48c-0.81-0.81-1.19-1.84-1.13-3.07l2.63,0.33
		c-0.02,0.53,0.17,1.02,0.58,1.45c0.41,0.43,0.99,0.69,1.74,0.79c0.68,0.08,1.26-0.02,1.73-0.32s0.75-0.77,0.83-1.42
		c0.05-0.45-0.04-0.83-0.27-1.14s-0.55-0.59-0.95-0.8c-0.4-0.22-0.94-0.47-1.64-0.75c-0.93-0.38-1.67-0.74-2.25-1.08
		c-0.57-0.34-1.04-0.81-1.39-1.41c-0.36-0.6-0.48-1.36-0.36-2.28c0.09-0.74,0.38-1.41,0.85-2.01c0.48-0.6,1.12-1.06,1.92-1.36
		c0.81-0.3,1.72-0.39,2.75-0.26C273.22,521.67,274.07,521.95,274.81,522.39z"/>
	<path class="st0" d="M250.94,518.4c0.68,0.51,1.17,1.13,1.46,1.84c0.29,0.72,0.34,1.48,0.15,2.3l-2.49-0.59
		c0.09-0.63-0.03-1.19-0.37-1.68s-0.89-0.84-1.67-1.02c-0.8-0.19-1.48-0.14-2.02,0.14c-0.54,0.28-0.88,0.73-1.03,1.34
		c-0.11,0.48-0.06,0.9,0.14,1.26c0.21,0.37,0.5,0.68,0.88,0.94c0.38,0.26,0.91,0.57,1.6,0.94c0.87,0.46,1.56,0.89,2.08,1.28
		c0.52,0.39,0.92,0.9,1.2,1.53c0.28,0.63,0.32,1.38,0.11,2.27c-0.19,0.82-0.57,1.48-1.12,2c-0.55,0.52-1.24,0.85-2.05,1
		c-0.81,0.15-1.7,0.12-2.67-0.11c-1.38-0.32-2.42-0.93-3.14-1.83c-0.72-0.9-0.98-1.95-0.79-3.18l2.58,0.61
		c-0.08,0.53,0.06,1.03,0.42,1.5c0.36,0.47,0.91,0.8,1.65,0.97c0.67,0.16,1.25,0.12,1.76-0.12c0.5-0.24,0.83-0.68,0.98-1.32
		c0.1-0.44,0.05-0.83-0.15-1.17c-0.2-0.34-0.48-0.64-0.85-0.9c-0.37-0.26-0.89-0.57-1.55-0.93c-0.88-0.48-1.58-0.92-2.12-1.32
		c-0.53-0.4-0.94-0.92-1.23-1.55c-0.29-0.64-0.33-1.4-0.11-2.3c0.17-0.72,0.53-1.36,1.06-1.91s1.23-0.93,2.06-1.14
		c0.83-0.21,1.76-0.2,2.76,0.04C249.44,517.51,250.26,517.88,250.94,518.4z"/>
	<path class="st0" d="M234.84,526.97l1.21-4.11l-4.84-1.42l0.55-1.87l4.84,1.42l1.26-4.29l-5.44-1.6l0.55-1.87l7.74,2.27
		l-4.12,14.02l-7.74-2.27l0.55-1.87L234.84,526.97z"/>
	<path class="st0" d="M222.9,509.76l1.21,6.62l1.72,0.61l1.95-5.5l2.26,0.8l-4.88,13.75l-4.75-1.69c-1.06-0.38-1.88-0.88-2.48-1.51
		c-0.6-0.63-0.97-1.32-1.12-2.07c-0.14-0.75-0.08-1.51,0.19-2.27c0.32-0.9,0.87-1.62,1.65-2.17c0.78-0.55,1.76-0.76,2.93-0.64
		l-1.38-6.91L222.9,509.76z M225.2,518.8l-2.49-0.88c-0.84-0.3-1.56-0.31-2.13-0.04c-0.58,0.27-0.99,0.76-1.25,1.47
		c-0.25,0.71-0.24,1.34,0.04,1.9c0.28,0.55,0.85,0.98,1.71,1.29l2.49,0.88L225.2,518.8z"/>
	<path class="st0" d="M200.17,516.22l10.78-11.26l2.55,1.09l-0.68,15.58l-2.36-1.01l0.8-12.86l-8.77,9.45L200.17,516.22z"/>
	<path class="st0" d="M195.53,513.91l6.35-13.14l2.16,1.04l-6.35,13.14L195.53,513.91z"/>
	<path class="st0" d="M193.36,509.09c-1.13,0.68-2.34,1.02-3.65,1.03c-1.31,0.01-2.56-0.31-3.75-0.96c-1.36-0.74-2.4-1.74-3.09-2.99
		c-0.7-1.25-0.95-2.62-0.76-4.11l2.53,1.38c-0.04,0.86,0.15,1.61,0.56,2.27c0.41,0.65,1,1.19,1.77,1.61
		c0.85,0.46,1.71,0.68,2.58,0.67s1.69-0.28,2.45-0.79c0.76-0.51,1.4-1.24,1.92-2.18c0.52-0.95,0.78-1.88,0.8-2.8
		c0.01-0.92-0.21-1.75-0.66-2.5c-0.45-0.75-1.1-1.36-1.95-1.82c-0.77-0.42-1.55-0.63-2.32-0.62s-1.51,0.26-2.21,0.76l-2.53-1.38
		c1.15-0.97,2.44-1.49,3.86-1.58c1.43-0.08,2.82,0.25,4.18,0.99c1.2,0.66,2.15,1.54,2.84,2.64c0.69,1.1,1.06,2.31,1.1,3.62
		c0.04,1.31-0.28,2.6-0.97,3.85C195.39,507.45,194.48,508.41,193.36,509.09z"/>
	<path class="st0" d="M175.87,500.84l2.28-3.63l-4.27-2.68l1.04-1.65l4.27,2.68l2.38-3.79l-4.8-3.02l1.04-1.65l6.83,4.29
		l-7.78,12.38l-6.83-4.29l1.04-1.65L175.87,500.84z"/>
	<path class="st0" d="M173.27,484.48c0.44,0.73,0.67,1.48,0.67,2.26s-0.24,1.5-0.72,2.19l-2.09-1.48c0.32-0.55,0.41-1.11,0.29-1.7
		c-0.13-0.59-0.52-1.11-1.17-1.57c-0.67-0.48-1.32-0.68-1.92-0.62c-0.61,0.06-1.09,0.35-1.46,0.86c-0.28,0.4-0.4,0.81-0.34,1.23
		s0.21,0.82,0.46,1.2c0.25,0.38,0.63,0.87,1.14,1.47c0.63,0.75,1.12,1.41,1.45,1.96c0.34,0.55,0.52,1.18,0.55,1.86
		c0.03,0.69-0.22,1.4-0.74,2.15c-0.48,0.69-1.08,1.17-1.79,1.44c-0.71,0.27-1.47,0.33-2.28,0.17c-0.81-0.16-1.62-0.53-2.44-1.1
		c-1.16-0.82-1.9-1.77-2.23-2.87c-0.33-1.1-0.18-2.18,0.45-3.24l2.16,1.53c-0.27,0.46-0.33,0.98-0.17,1.55s0.55,1.08,1.17,1.52
		c0.56,0.4,1.12,0.58,1.68,0.54c0.56-0.04,1.02-0.32,1.4-0.86c0.26-0.37,0.36-0.75,0.3-1.14s-0.21-0.78-0.46-1.16
		c-0.25-0.38-0.61-0.86-1.09-1.44c-0.64-0.77-1.13-1.45-1.47-2.01s-0.53-1.2-0.56-1.9c-0.03-0.7,0.22-1.42,0.75-2.18
		c0.43-0.61,0.99-1.06,1.7-1.37c0.71-0.31,1.48-0.4,2.34-0.29c0.85,0.11,1.7,0.47,2.55,1.07
		C172.21,483.1,172.83,483.75,173.27,484.48z"/>
	<path class="st0" d="M154.1,469.7c0.36,0.78,0.5,1.55,0.42,2.32c-0.08,0.77-0.4,1.47-0.95,2.1l-1.92-1.69
		c0.37-0.51,0.53-1.06,0.47-1.66c-0.06-0.6-0.39-1.16-0.99-1.69c-0.62-0.55-1.23-0.82-1.85-0.83s-1.12,0.23-1.54,0.7
		c-0.32,0.37-0.48,0.76-0.47,1.18c0.01,0.42,0.12,0.84,0.33,1.24s0.53,0.94,0.97,1.58c0.55,0.82,0.96,1.52,1.23,2.11
		c0.28,0.59,0.39,1.23,0.34,1.91c-0.05,0.69-0.37,1.37-0.97,2.05c-0.56,0.63-1.2,1.04-1.93,1.24s-1.49,0.17-2.28-0.08
		c-0.79-0.25-1.56-0.7-2.3-1.36c-1.06-0.93-1.7-1.97-1.91-3.09c-0.21-1.13,0.06-2.19,0.8-3.17l1.99,1.75
		c-0.32,0.43-0.43,0.93-0.33,1.52c0.1,0.59,0.43,1.13,1,1.63c0.51,0.45,1.05,0.69,1.61,0.72c0.56,0.02,1.05-0.21,1.49-0.7
		c0.3-0.34,0.44-0.7,0.42-1.1c-0.02-0.4-0.12-0.8-0.33-1.2c-0.2-0.4-0.51-0.92-0.93-1.55c-0.55-0.84-0.96-1.56-1.25-2.16
		c-0.28-0.6-0.4-1.25-0.35-1.95c0.05-0.7,0.37-1.39,0.98-2.09c0.49-0.56,1.1-0.95,1.84-1.18c0.73-0.23,1.52-0.24,2.36-0.04
		c0.84,0.21,1.64,0.65,2.42,1.33C153.19,468.21,153.74,468.92,154.1,469.7z"/>
	<path class="st0" d="M135.87,469.68l3-3.06l-3.6-3.53l1.37-1.39l3.6,3.53l3.13-3.2l-4.05-3.97l1.37-1.39l5.76,5.64l-10.23,10.44
		l-5.76-5.64l1.37-1.39L135.87,469.68z"/>
	<path class="st0" d="M133.41,448.88l-2.04,6.42l1.23,1.35l4.31-3.94l1.62,1.77l-10.77,9.85l-3.4-3.72
		c-0.76-0.83-1.25-1.66-1.49-2.5c-0.23-0.84-0.24-1.62-0.01-2.35c0.23-0.73,0.64-1.37,1.24-1.91c0.7-0.64,1.53-1.02,2.47-1.14
		s1.91,0.15,2.89,0.81l2.02-6.75L133.41,448.88z M131.19,457.94l-1.79-1.95c-0.6-0.66-1.23-1.01-1.86-1.04
		c-0.64-0.03-1.24,0.21-1.79,0.71c-0.56,0.51-0.84,1.07-0.86,1.69c-0.01,0.62,0.29,1.26,0.9,1.94l1.79,1.95L131.19,457.94z"/>
	<path class="st0" d="M110.32,443.94l14.8-4.89l1.74,2.16l-7.91,13.44l-1.61-2l6.73-10.99l-12.18,4.24L110.32,443.94z"/>
	<path class="st0" d="M107.29,439.7l11.77-8.63l1.42,1.93l-11.77,8.63L107.29,439.7z"/>
	<path class="st0" d="M107.64,434.44c-1.31,0.07-2.55-0.2-3.71-0.8c-1.16-0.6-2.11-1.47-2.86-2.6c-0.86-1.3-1.3-2.66-1.33-4.09
		c-0.03-1.43,0.39-2.76,1.25-3.99l1.59,2.4c-0.43,0.74-0.62,1.49-0.57,2.26c0.06,0.77,0.33,1.52,0.81,2.26
		c0.53,0.81,1.19,1.41,1.97,1.8c0.78,0.39,1.62,0.54,2.54,0.45c0.91-0.09,1.82-0.43,2.72-1.03c0.9-0.59,1.57-1.29,2.01-2.1
		c0.44-0.8,0.64-1.64,0.59-2.52s-0.34-1.71-0.87-2.52c-0.49-0.74-1.07-1.28-1.76-1.63c-0.69-0.35-1.45-0.47-2.3-0.37l-1.59-2.4
		c1.47-0.32,2.85-0.18,4.15,0.42c1.3,0.59,2.38,1.54,3.23,2.84c0.76,1.14,1.18,2.37,1.27,3.66c0.09,1.3-0.15,2.54-0.73,3.72
		c-0.58,1.18-1.47,2.16-2.66,2.95S108.95,434.37,107.64,434.44z"/>
	<path class="st0" d="M96.05,418.96l3.71-2.14l-2.52-4.37l1.69-0.97l2.51,4.37l3.88-2.23l-2.83-4.91l1.69-0.97l4.02,6.99
		l-12.67,7.29l-4.02-6.99l1.69-0.97L96.05,418.96z"/>
	<path class="st0" d="M101.42,403.29c0.05,0.85-0.11,1.62-0.47,2.31c-0.36,0.68-0.91,1.22-1.66,1.6l-1.16-2.29
		c0.54-0.33,0.89-0.79,1.05-1.37c0.16-0.58,0.06-1.22-0.3-1.93c-0.37-0.74-0.84-1.22-1.41-1.45c-0.56-0.23-1.13-0.21-1.69,0.08
		c-0.44,0.22-0.73,0.53-0.87,0.92s-0.2,0.82-0.15,1.28c0.04,0.46,0.15,1.07,0.31,1.83c0.21,0.96,0.33,1.77,0.36,2.42
		c0.04,0.65-0.09,1.28-0.39,1.9s-0.85,1.14-1.66,1.55c-0.75,0.38-1.5,0.52-2.25,0.43c-0.75-0.09-1.45-0.4-2.09-0.92
		c-0.64-0.52-1.19-1.23-1.64-2.11c-0.64-1.26-0.85-2.46-0.62-3.58s0.86-2.01,1.92-2.65l1.2,2.36c-0.46,0.28-0.75,0.71-0.88,1.29
		s-0.02,1.21,0.32,1.89c0.31,0.61,0.72,1.03,1.23,1.26c0.51,0.23,1.06,0.19,1.64-0.1c0.4-0.2,0.67-0.49,0.8-0.86
		c0.13-0.37,0.18-0.79,0.14-1.24c-0.04-0.45-0.14-1.04-0.29-1.78c-0.2-0.98-0.32-1.8-0.36-2.47c-0.04-0.66,0.09-1.31,0.39-1.94
		s0.86-1.16,1.69-1.57c0.66-0.33,1.38-0.47,2.14-0.42c0.77,0.06,1.5,0.34,2.2,0.84s1.29,1.21,1.75,2.14
		C101.13,401.57,101.37,402.44,101.42,403.29z"/>
	<path class="st0" d="M93.55,386.53c-0.02,0.86-0.24,1.61-0.66,2.26c-0.42,0.65-1.01,1.14-1.79,1.45l-0.96-2.37
		c0.56-0.29,0.95-0.71,1.16-1.28c0.21-0.56,0.17-1.21-0.13-1.95c-0.31-0.77-0.74-1.29-1.28-1.57s-1.11-0.3-1.69-0.06
		c-0.45,0.18-0.77,0.47-0.95,0.85c-0.18,0.38-0.26,0.8-0.26,1.26c0,0.46,0.06,1.08,0.16,1.85c0.12,0.98,0.18,1.79,0.16,2.44
		c-0.02,0.65-0.2,1.27-0.55,1.87c-0.35,0.59-0.94,1.06-1.79,1.41c-0.78,0.32-1.54,0.4-2.28,0.25s-1.41-0.52-2.01-1.09
		c-0.6-0.57-1.08-1.32-1.45-2.24c-0.53-1.31-0.64-2.52-0.32-3.62c0.32-1.1,1.03-1.93,2.13-2.49l1,2.45
		c-0.48,0.24-0.8,0.64-0.98,1.21c-0.18,0.57-0.12,1.21,0.16,1.91c0.26,0.64,0.63,1.09,1.12,1.36c0.49,0.27,1.04,0.28,1.65,0.04
		c0.42-0.17,0.7-0.43,0.87-0.79c0.16-0.36,0.24-0.77,0.24-1.22c0-0.45-0.05-1.05-0.14-1.8c-0.12-1-0.17-1.82-0.15-2.49
		c0.02-0.67,0.2-1.3,0.55-1.9c0.35-0.6,0.96-1.08,1.81-1.43c0.69-0.28,1.41-0.36,2.17-0.24c0.76,0.12,1.47,0.46,2.12,1.02
		c0.66,0.56,1.18,1.32,1.57,2.28C93.4,384.79,93.57,385.67,93.55,386.53z"/>
	<path class="st0" d="M77.25,378.36l4.05-1.4l-1.64-4.76l1.85-0.64l1.64,4.76l4.23-1.46l-1.85-5.36l1.85-0.64L90,376.5l-13.82,4.76
		l-2.63-7.62L75.4,373L77.25,378.36z"/>
	<path class="st0" d="M84.36,358.67l-4.7,4.83l0.5,1.76l5.62-1.59l0.65,2.3l-14.04,3.98l-1.38-4.85c-0.31-1.08-0.38-2.04-0.21-2.9
		s0.51-1.56,1.04-2.11c0.53-0.55,1.18-0.94,1.96-1.16c0.92-0.26,1.82-0.23,2.72,0.09s1.64,0.99,2.22,2.02l4.83-5.12L84.36,358.67z
		 M78.32,365.78l-0.72-2.55c-0.24-0.86-0.64-1.45-1.2-1.77c-0.55-0.31-1.2-0.37-1.92-0.16c-0.73,0.21-1.24,0.58-1.52,1.13
		c-0.29,0.55-0.31,1.26-0.06,2.13l0.72,2.55L78.32,365.78z"/>
	<path class="st0" d="M65.93,343.87l15.42,2.27l0.59,2.71l-13.1,8.47l-0.54-2.5l10.95-6.8l-12.78-1.68L65.93,343.87z"/>
	<path class="st0" d="M65.13,338.73l14.39-2.43l0.4,2.36l-14.39,2.43L65.13,338.73z"/>
	<path class="st0" d="M67.81,334.19c-1.2-0.53-2.19-1.32-2.96-2.38c-0.77-1.06-1.23-2.26-1.39-3.61c-0.18-1.54,0.03-2.96,0.65-4.25
		c0.62-1.29,1.59-2.29,2.91-3l0.34,2.86c-0.72,0.47-1.23,1.05-1.52,1.77s-0.39,1.51-0.29,2.38c0.11,0.96,0.43,1.79,0.95,2.49
		c0.52,0.7,1.21,1.21,2.06,1.54c0.86,0.33,1.82,0.43,2.89,0.3c1.07-0.13,1.98-0.45,2.74-0.97c0.76-0.52,1.31-1.18,1.66-1.98
		s0.47-1.68,0.35-2.64c-0.1-0.88-0.38-1.62-0.84-2.25c-0.45-0.62-1.09-1.08-1.9-1.36l-0.34-2.86c1.45,0.38,2.63,1.12,3.52,2.24
		c0.89,1.11,1.43,2.44,1.61,3.99c0.16,1.36-0.01,2.64-0.51,3.84c-0.5,1.2-1.27,2.2-2.32,2.99s-2.28,1.27-3.7,1.44
		S69.01,334.71,67.81,334.19z"/>
	<path class="st0" d="M64.4,315.15l4.28-0.24l-0.29-5.03l1.95-0.11l0.29,5.03l4.47-0.25l-0.32-5.66l1.95-0.11l0.46,8.05l-14.59,0.83
		l-0.46-8.05l1.95-0.11L64.4,315.15z"/>
	<path class="st0" d="M76.27,303.51c-0.33,0.79-0.81,1.41-1.43,1.87c-0.62,0.46-1.35,0.69-2.19,0.71l-0.04-2.56
		c0.63-0.07,1.14-0.32,1.54-0.77c0.4-0.45,0.59-1.07,0.58-1.87c-0.01-0.83-0.22-1.47-0.63-1.92c-0.41-0.46-0.92-0.68-1.55-0.67
		c-0.49,0.01-0.89,0.16-1.19,0.45s-0.54,0.65-0.7,1.08s-0.33,1.02-0.52,1.78c-0.24,0.96-0.48,1.73-0.73,2.33
		c-0.25,0.6-0.64,1.11-1.18,1.54s-1.26,0.65-2.17,0.67c-0.84,0.01-1.58-0.18-2.21-0.59c-0.64-0.41-1.13-0.99-1.48-1.74
		c-0.35-0.75-0.53-1.62-0.55-2.62c-0.02-1.41,0.31-2.58,1-3.49c0.69-0.92,1.65-1.43,2.88-1.55l0.04,2.65
		c-0.53,0.05-0.98,0.31-1.35,0.78c-0.37,0.47-0.55,1.08-0.54,1.84c0.01,0.69,0.2,1.24,0.55,1.67c0.36,0.43,0.86,0.64,1.52,0.63
		c0.45-0.01,0.81-0.15,1.1-0.43c0.28-0.28,0.5-0.63,0.67-1.05c0.16-0.42,0.33-1,0.52-1.73c0.25-0.97,0.5-1.76,0.76-2.38
		s0.66-1.14,1.2-1.57c0.55-0.44,1.28-0.66,2.2-0.68c0.74-0.01,1.45,0.18,2.11,0.56c0.66,0.39,1.2,0.96,1.61,1.72
		c0.41,0.76,0.63,1.65,0.64,2.69C76.76,301.84,76.6,302.72,76.27,303.51z"/>
	<path class="st0" d="M76.7,285.05c-0.4,0.75-0.94,1.33-1.6,1.73c-0.66,0.4-1.41,0.56-2.25,0.5l0.2-2.55
		c0.63-0.01,1.17-0.21,1.61-0.62c0.44-0.41,0.69-1.01,0.75-1.81c0.06-0.82-0.08-1.48-0.45-1.97s-0.86-0.76-1.49-0.81
		c-0.49-0.04-0.9,0.07-1.23,0.34s-0.59,0.6-0.79,1.01c-0.2,0.41-0.43,0.99-0.68,1.73c-0.32,0.93-0.64,1.68-0.94,2.25
		s-0.75,1.05-1.32,1.42c-0.58,0.38-1.32,0.53-2.23,0.46c-0.84-0.07-1.55-0.33-2.15-0.8s-1.03-1.09-1.31-1.87
		c-0.28-0.78-0.38-1.66-0.3-2.66c0.11-1.41,0.55-2.54,1.33-3.38c0.77-0.85,1.78-1.27,3.02-1.27l-0.2,2.64
		c-0.53,0-1.01,0.22-1.42,0.65c-0.41,0.43-0.65,1.02-0.71,1.78c-0.05,0.68,0.08,1.26,0.39,1.72c0.32,0.46,0.8,0.71,1.46,0.77
		c0.45,0.04,0.82-0.07,1.13-0.32c0.31-0.25,0.56-0.58,0.76-0.98c0.2-0.41,0.43-0.96,0.68-1.67c0.34-0.94,0.67-1.71,0.98-2.29
		c0.31-0.59,0.76-1.07,1.34-1.45c0.58-0.38,1.34-0.54,2.26-0.47c0.74,0.06,1.42,0.31,2.05,0.76c0.62,0.45,1.11,1.07,1.45,1.86
		c0.34,0.79,0.47,1.7,0.39,2.74C77.34,283.42,77.11,284.29,76.7,285.05z"/>
	<path class="st0" d="M65.76,270.46l4.25,0.56l0.66-5l1.94,0.25l-0.66,5l4.43,0.58l0.74-5.62l1.94,0.25l-1.05,8l-14.49-1.91l1.05-8
		l1.94,0.25L65.76,270.46z"/>
	<path class="st0" d="M80.91,256l-6.36,2.22l-0.34,1.8l5.74,1.08l-0.44,2.35l-14.34-2.7l0.93-4.95c0.21-1.1,0.58-2,1.1-2.69
		c0.53-0.69,1.15-1.17,1.87-1.42c0.72-0.26,1.48-0.31,2.27-0.16c0.94,0.18,1.73,0.61,2.4,1.29c0.66,0.69,1.02,1.62,1.09,2.8
		l6.61-2.43L80.91,256z M72.34,259.67l0.49-2.6c0.17-0.88,0.07-1.59-0.29-2.12c-0.36-0.53-0.91-0.86-1.65-1
		c-0.74-0.14-1.37-0.03-1.87,0.33s-0.84,0.99-1.01,1.88l-0.49,2.6L72.34,259.67z"/>
	<path class="st0" d="M71.01,234.54l12.8,8.91l-0.68,2.69l-15.5,1.74l0.63-2.48l12.83-1.2l-10.69-7.2L71.01,234.54z"/>
	<path class="st0" d="M72.59,229.57l13.96,4.24l-0.7,2.29l-13.96-4.24L72.59,229.57z"/>
	<path class="st0" d="M77.01,226.71c-0.84-1.01-1.37-2.16-1.58-3.45c-0.21-1.29-0.09-2.57,0.37-3.85c0.53-1.46,1.35-2.63,2.48-3.52
		c1.13-0.88,2.44-1.34,3.94-1.38l-0.97,2.71c-0.85,0.1-1.57,0.4-2.15,0.9c-0.58,0.5-1.02,1.17-1.32,2
		c-0.33,0.91-0.41,1.79-0.26,2.65c0.15,0.86,0.54,1.63,1.16,2.3c0.62,0.68,1.44,1.2,2.45,1.56c1.02,0.36,1.98,0.48,2.88,0.35
		c0.91-0.13,1.7-0.47,2.37-1.04s1.17-1.3,1.5-2.21c0.3-0.83,0.38-1.63,0.25-2.39c-0.13-0.76-0.49-1.45-1.09-2.06l0.97-2.71
		c1.13,0.99,1.85,2.18,2.15,3.57c0.3,1.4,0.19,2.82-0.33,4.29c-0.46,1.29-1.19,2.36-2.17,3.22c-0.98,0.85-2.12,1.4-3.41,1.64
		s-2.61,0.12-3.95-0.36C78.95,228.46,77.85,227.71,77.01,226.71z"/>
	<path class="st0" d="M82.46,208.15l3.94,1.69l1.99-4.63l1.79,0.77l-1.99,4.63l4.11,1.77l2.24-5.21l1.79,0.77l-3.19,7.41
		l-13.43-5.78l3.19-7.41l1.79,0.77L82.46,208.15z"/>
	<path class="st0" d="M98.23,203.07c-0.66,0.55-1.37,0.89-2.13,1.01c-0.76,0.12-1.52,0-2.27-0.38l1.14-2.3
		c0.59,0.23,1.16,0.24,1.72,0.02s1.02-0.68,1.37-1.39c0.37-0.74,0.47-1.41,0.32-2c-0.15-0.59-0.51-1.03-1.08-1.31
		c-0.44-0.22-0.86-0.27-1.26-0.15c-0.4,0.12-0.77,0.33-1.12,0.64s-0.77,0.76-1.28,1.35c-0.65,0.74-1.22,1.32-1.72,1.74
		c-0.5,0.42-1.08,0.69-1.76,0.83s-1.42,0-2.24-0.41c-0.75-0.37-1.32-0.89-1.7-1.54c-0.38-0.66-0.55-1.4-0.51-2.22
		c0.03-0.83,0.27-1.68,0.71-2.58c0.63-1.27,1.46-2.15,2.49-2.64c1.03-0.5,2.13-0.51,3.27-0.05l-1.18,2.37
		c-0.5-0.2-1.02-0.18-1.56,0.07c-0.54,0.25-0.98,0.71-1.32,1.39c-0.3,0.61-0.4,1.19-0.28,1.74c0.12,0.54,0.48,0.96,1.07,1.25
		c0.4,0.2,0.79,0.24,1.17,0.12c0.38-0.12,0.74-0.33,1.07-0.63c0.34-0.3,0.75-0.73,1.25-1.3c0.67-0.75,1.26-1.33,1.76-1.76
		c0.51-0.43,1.11-0.71,1.79-0.85c0.69-0.14,1.44,0,2.27,0.41c0.67,0.33,1.2,0.82,1.62,1.47c0.41,0.65,0.63,1.41,0.65,2.27
		c0.02,0.86-0.2,1.76-0.66,2.68C99.44,201.81,98.89,202.52,98.23,203.07z"/>
</g>
</svg>
